<svg xmlns="http://www.w3.org/2000/svg" width="259.684" height="61.27" viewBox="0 0 259.684 61.27"><g id="Gruppe_2" data-name="Gruppe 2" transform="translate(-72 -71.994)"><rect id="Rechteck_1" data-name="Rechteck 1" width="22.976" height="10.212" transform="translate(106.465 97.524)" fill="#fff"></rect><rect id="Rechteck_2" data-name="Rechteck 2" width="11.488" height="61.27" transform="translate(72 71.994)" fill="#fff"></rect><rect id="Rechteck_3" data-name="Rechteck 3" width="11.488" height="61.27" transform="translate(133.27 71.994)" fill="#fff"></rect><path id="Pfad_1" data-name="Pfad 1" d="M219.37,98.865H216V80.994h3.37v7.327h.74l4.723-7.327h3.8v.153L223.123,89.7v.459l5.821,8.553v.152h-3.958l-4.875-7.326h-.74Z" transform="translate(-21.459 -1.341)" fill="#fff"></path><path id="Pfad_2" data-name="Pfad 2" d="M237.607,99.714H234.39V87.052h3.217v1.888h.46a3.349,3.349,0,0,1,1.4-1.659,4.294,4.294,0,0,1,2.272-.587,5.006,5.006,0,0,1,1.723.293,3.873,3.873,0,0,1,1.417.906,4.206,4.206,0,0,1,.957,1.557,6.587,6.587,0,0,1,.345,2.247v8.016h-3.217v-7.2a3.217,3.217,0,0,0-.652-2.131,2.306,2.306,0,0,0-1.876-.779,2.469,2.469,0,0,0-2.132.957,4.238,4.238,0,0,0-.7,2.565Z" transform="translate(-24.2 -2.191)" fill="#fff"></path><path id="Pfad_3" data-name="Pfad 3" d="M265.023,93.537a6.855,6.855,0,0,1-.536,2.8,5.948,5.948,0,0,1-1.455,2.041,6.361,6.361,0,0,1-2.107,1.265,7.366,7.366,0,0,1-4.977,0,6.369,6.369,0,0,1-2.106-1.265,5.962,5.962,0,0,1-1.456-2.041,6.854,6.854,0,0,1-.535-2.8V93.23a6.793,6.793,0,0,1,.535-2.77,6.117,6.117,0,0,1,1.456-2.055,6.286,6.286,0,0,1,2.106-1.276,7.366,7.366,0,0,1,4.977,0,6.279,6.279,0,0,1,2.107,1.276,6.1,6.1,0,0,1,1.455,2.055,6.793,6.793,0,0,1,.536,2.77Zm-6.586,3.472a3.661,3.661,0,0,0,1.3-.231,3.094,3.094,0,0,0,1.8-1.722,3.565,3.565,0,0,0,.268-1.418v-.511a3.562,3.562,0,0,0-.268-1.416,3.085,3.085,0,0,0-1.8-1.723,3.793,3.793,0,0,0-2.6,0,3.087,3.087,0,0,0-1.8,1.723,3.564,3.564,0,0,0-.268,1.416v.511a3.566,3.566,0,0,0,.268,1.418,3.1,3.1,0,0,0,1.8,1.722A3.669,3.669,0,0,0,258.437,97.009Z" transform="translate(-26.802 -2.191)" fill="#fff"></path><path id="Pfad_4" data-name="Pfad 4" d="M283.236,99.777h-5.566l-.715-9.6V88.646h-.612v1.533l-.715,9.6h-5.565l-.842-12.662h2.961l.562,9.6v1.532h.613V96.714l.638-9.6H279.3l.638,9.6v1.532h.614V96.714l.562-9.6h2.961Z" transform="translate(-29.39 -2.253)" fill="#fff"></path><path id="Pfad_5" data-name="Pfad 5" d="M289.38,95.8h4.442V84.058h-4.29V80.994h7.506V95.8h4.135v3.063H289.38Z" transform="translate(-32.394 -1.341)" fill="#fff"></path><path id="Pfad_6" data-name="Pfad 6" d="M310.579,94.43a2.465,2.465,0,0,0,.268,1.034,2.546,2.546,0,0,0,.664.817,3.162,3.162,0,0,0,.97.537,3.5,3.5,0,0,0,1.162.191,3.349,3.349,0,0,0,1.838-.421,2.528,2.528,0,0,0,.918-1.008l2.757,1.531a5.516,5.516,0,0,1-.638,1.008,4.438,4.438,0,0,1-1.059.957,5.9,5.9,0,0,1-1.582.715,7.575,7.575,0,0,1-2.184.281,7.062,7.062,0,0,1-2.6-.46,5.764,5.764,0,0,1-2.031-1.327,5.969,5.969,0,0,1-1.328-2.12,7.957,7.957,0,0,1-.471-2.834v-.152a6.86,6.86,0,0,1,.5-2.655,6.016,6.016,0,0,1,1.366-2.043,6.288,6.288,0,0,1,2.03-1.315,6.545,6.545,0,0,1,2.49-.471,6.33,6.33,0,0,1,2.807.574,6.084,6.084,0,0,1,1.942,1.455,5.748,5.748,0,0,1,1.122,1.941,6.407,6.407,0,0,1,.358,2.054v1.71Zm3.038-4.824a3.052,3.052,0,0,0-1.992.625,2.862,2.862,0,0,0-.995,1.442H316.6a2.267,2.267,0,0,0-.957-1.48A3.346,3.346,0,0,0,313.617,89.605Z" transform="translate(-35.059 -2.191)" fill="#fff"></path><path id="Pfad_7" data-name="Pfad 7" d="M335.126,97.026h-.46a4.884,4.884,0,0,1-.5.83,2.928,2.928,0,0,1-.766.7,4,4,0,0,1-1.124.484,6,6,0,0,1-1.569.179,5.606,5.606,0,0,1-2.183-.421,4.893,4.893,0,0,1-1.762-1.251,5.872,5.872,0,0,1-1.174-2.029,8.306,8.306,0,0,1-.421-2.758V92.3a7.8,7.8,0,0,1,.447-2.732,5.942,5.942,0,0,1,1.226-2.029,5.241,5.241,0,0,1,1.811-1.265,5.6,5.6,0,0,1,2.184-.433,4.449,4.449,0,0,1,2.425.574,3.925,3.925,0,0,1,1.4,1.621h.46V80.994h3.216V98.865h-3.216Zm-3.37-.867a3.247,3.247,0,0,0,2.437-.957,3.451,3.451,0,0,0,.933-2.515V92.38a3.451,3.451,0,0,0-.933-2.515,3.247,3.247,0,0,0-2.437-.957,3.3,3.3,0,0,0-2.438.932,3.434,3.434,0,0,0-.932,2.54v.307a3.43,3.43,0,0,0,.932,2.539A3.3,3.3,0,0,0,331.757,96.159Z" transform="translate(-37.728 -1.341)" fill="#fff"></path><path id="Pfad_8" data-name="Pfad 8" d="M353.426,97.876h-.46a4.956,4.956,0,0,1-.5.83,2.928,2.928,0,0,1-.766.7,4.006,4.006,0,0,1-1.123.484,6,6,0,0,1-1.571.179,5.6,5.6,0,0,1-2.182-.421,4.889,4.889,0,0,1-1.762-1.251,5.883,5.883,0,0,1-1.173-2.029,8.307,8.307,0,0,1-.422-2.758v-.46a7.8,7.8,0,0,1,.448-2.732,5.968,5.968,0,0,1,1.225-2.029,5.259,5.259,0,0,1,1.813-1.265,5.6,5.6,0,0,1,2.183-.433,4.442,4.442,0,0,1,2.424.574,3.928,3.928,0,0,1,1.4,1.621h.46V87.052h3.217V102.83a1.959,1.959,0,0,1-.549,1.429,1.9,1.9,0,0,1-1.418.562h-8.622v-3.063h6.683c.459,0,.689-.256.689-.767Zm-3.37-.867a3.252,3.252,0,0,0,2.438-.957,3.457,3.457,0,0,0,.932-2.515V93.23a3.457,3.457,0,0,0-.932-2.515,3.252,3.252,0,0,0-2.438-.957,3.3,3.3,0,0,0-2.439.932,3.433,3.433,0,0,0-.931,2.54v.307a3.43,3.43,0,0,0,.931,2.539A3.3,3.3,0,0,0,350.056,97.009Z" transform="translate(-40.455 -2.191)" fill="#fff"></path><path id="Pfad_9" data-name="Pfad 9" d="M365.658,94.43a2.478,2.478,0,0,0,.268,1.034,2.56,2.56,0,0,0,.665.817,3.16,3.16,0,0,0,.969.537,3.51,3.51,0,0,0,1.162.191,3.347,3.347,0,0,0,1.838-.421,2.528,2.528,0,0,0,.918-1.008l2.757,1.531a5.429,5.429,0,0,1-.638,1.008,4.434,4.434,0,0,1-1.059.957,5.912,5.912,0,0,1-1.583.715,7.571,7.571,0,0,1-2.184.281,7.065,7.065,0,0,1-2.6-.46,5.763,5.763,0,0,1-2.031-1.327,5.967,5.967,0,0,1-1.327-2.12,7.958,7.958,0,0,1-.472-2.834v-.152a6.845,6.845,0,0,1,.5-2.655,6,6,0,0,1,1.366-2.043,6.288,6.288,0,0,1,2.03-1.315,6.543,6.543,0,0,1,2.489-.471,6.331,6.331,0,0,1,2.807.574,6.082,6.082,0,0,1,1.941,1.455,5.722,5.722,0,0,1,1.122,1.941,6.406,6.406,0,0,1,.357,2.054v1.71Zm3.038-4.824a3.048,3.048,0,0,0-1.991.625,2.857,2.857,0,0,0-.995,1.442h5.973a2.26,2.26,0,0,0-.957-1.48A3.343,3.343,0,0,0,368.7,89.605Z" transform="translate(-43.267 -2.191)" fill="#fff"></path><path id="Pfad_10" data-name="Pfad 10" d="M220.952,113.824h6.382v11.284h2.6v3.217h-2.6v3.37h-3.369v-3.37H216v-4.646Zm-2.042,10.825v.459h5.055v-9.6h-.46Z" transform="translate(-21.459 -6.234)" fill="#fff"></path><path id="Pfad_11" data-name="Pfad 11" d="M266.458,131.695h-3.37v-5.36a1.507,1.507,0,0,0-.319-1,1.312,1.312,0,0,0-1.059-.382h-3.88v6.739H254.46V113.824H261.3a7.043,7.043,0,0,1,2.425.384,4.9,4.9,0,0,1,1.749,1.059,4.607,4.607,0,0,1,1.073,1.57,4.968,4.968,0,0,1,.369,1.915v.612a3.861,3.861,0,0,1-.587,2.055,3.724,3.724,0,0,1-1.813,1.469v.459a2.073,2.073,0,0,1,1.94,2.171Zm-8.629-9.956h3.218a2.694,2.694,0,0,0,1.863-.574,2.067,2.067,0,0,0,.638-1.62v-.307a2.133,2.133,0,0,0-.638-1.545,2.5,2.5,0,0,0-1.863-.651h-3.218Z" transform="translate(-27.191 -6.234)" fill="#fff"></path><path id="Pfad_12" data-name="Pfad 12" d="M275.719,127.26a2.477,2.477,0,0,0,.267,1.034,2.544,2.544,0,0,0,.664.817,3.163,3.163,0,0,0,.97.537,3.5,3.5,0,0,0,1.162.191,3.345,3.345,0,0,0,1.838-.421,2.523,2.523,0,0,0,.919-1.008l2.758,1.531a5.519,5.519,0,0,1-.638,1.008,4.459,4.459,0,0,1-1.06.957,5.883,5.883,0,0,1-1.583.715,7.566,7.566,0,0,1-2.182.281,7.074,7.074,0,0,1-2.6-.46,5.768,5.768,0,0,1-2.03-1.327A6,6,0,0,1,272.871,129a7.983,7.983,0,0,1-.472-2.835v-.152a6.877,6.877,0,0,1,.5-2.655,6.019,6.019,0,0,1,1.366-2.043,6.272,6.272,0,0,1,2.03-1.315,6.544,6.544,0,0,1,2.489-.471,6.335,6.335,0,0,1,2.808.574,6.06,6.06,0,0,1,1.94,1.455,5.768,5.768,0,0,1,1.124,1.941,6.431,6.431,0,0,1,.358,2.054v1.71Zm3.038-4.824a3.05,3.05,0,0,0-1.992.625,2.863,2.863,0,0,0-1,1.442h5.975a2.273,2.273,0,0,0-.957-1.48A3.35,3.35,0,0,0,278.757,122.435Z" transform="translate(-29.864 -7.083)" fill="#fff"></path><path id="Pfad_13" data-name="Pfad 13" d="M290.909,119.033h3.753v-5.209h3.216v5.209h4.572V122.1h-4.572v5.769q0,.766.69.767h3.421v3.063h-5.36a1.89,1.89,0,0,1-1.418-.562,1.959,1.959,0,0,1-.549-1.429V122.1h-3.753Z" transform="translate(-32.622 -6.234)" fill="#fff"></path><path id="Pfad_14" data-name="Pfad 14" d="M317.714,130.706a3.3,3.3,0,0,1-1.43,1.7,4.433,4.433,0,0,1-2.144.5,5.409,5.409,0,0,1-2.157-.433,5.1,5.1,0,0,1-1.775-1.276A6.228,6.228,0,0,1,309,129.149a7.77,7.77,0,0,1-.447-2.732v-.408a7.939,7.939,0,0,1,.433-2.706,6.3,6.3,0,0,1,1.174-2.042,5.076,5.076,0,0,1,1.724-1.29,5.022,5.022,0,0,1,2.105-.446,4.491,4.491,0,0,1,2.184.46,3.225,3.225,0,0,1,1.315,1.429h.459v-1.531h3.217v8.832q0,.766.688.767h.485v3.063h-2.2a1.993,1.993,0,0,1-1.416-.51,1.729,1.729,0,0,1-.55-1.328Zm-2.858-.867a2.878,2.878,0,0,0,2.246-.933,3.641,3.641,0,0,0,.843-2.539v-.307a3.645,3.645,0,0,0-.843-2.54,3.174,3.174,0,0,0-4.493,0,3.648,3.648,0,0,0-.842,2.54v.307a3.644,3.644,0,0,0,.842,2.539A2.879,2.879,0,0,0,314.856,129.839Z" transform="translate(-35.251 -7.083)" fill="#fff"></path><path id="Pfad_15" data-name="Pfad 15" d="M328.319,128.462h4.289v-6.536h-3.983v-3.064h7.2v9.6H339.5v3.063H328.319Zm8.3-13.353a2.4,2.4,0,0,1-.191.957,2.308,2.308,0,0,1-.524.766,2.532,2.532,0,0,1-.779.511,2.345,2.345,0,0,1-.931.192,2.316,2.316,0,0,1-.945-.192,2.574,2.574,0,0,1-.765-.511,2.282,2.282,0,0,1-.523-.766,2.49,2.49,0,0,1,0-1.915,2.3,2.3,0,0,1,.523-.765,2.609,2.609,0,0,1,.765-.511,2.329,2.329,0,0,1,.945-.191,2.358,2.358,0,0,1,.931.191,2.565,2.565,0,0,1,.779.511,2.331,2.331,0,0,1,.524.765A2.41,2.41,0,0,1,336.616,115.109Z" transform="translate(-38.197 -6.064)" fill="#fff"></path><path id="Pfad_16" data-name="Pfad 16" d="M346.319,128.632h4.443V116.888h-4.29v-3.063h7.506v14.808h4.135v3.063H346.319Z" transform="translate(-40.88 -6.234)" fill="#fff"></path><g id="Gruppe_1" data-name="Gruppe 1" transform="translate(89.751 71.995)"><path id="Pfad_17" data-name="Pfad 17" d="M106.944,97.524l21.778-25.529h-14.1L92.868,97.524Z" transform="translate(-92.861 -71.995)" fill="#fff"></path><path id="Pfad_18" data-name="Pfad 18" d="M92.86,113.994l21.761,25.529h14.1l-21.777-25.529Z" transform="translate(-92.86 -78.253)" fill="#fff"></path></g><path id="Pfad_19" data-name="Pfad 19" d="M174.161,102.63l18.475-21.657V71.995h-6.44l-.01.012H162V82.218h15.479L162,100.387v4.493l24.2,28.384h14.1Z" transform="translate(-13.412 0)" fill="#fff"></path></g></svg>